<svg id="Layer_1" enable-background="new 0 0 68 68" viewBox="0 0 68 68" xmlns="http://www.w3.org/2000/svg"><g><path d="m53.9969063 63.5189476c-13.5698242 3.8696327-26.9697285 3.8501015-40.1699219-.0200195-2.3898926-.7001953-3.8198242-3.1899414-3.0898438-5.5600586.6999512-2.2602539 1.7597656-4.2900391 3.1298828-6.1499023h40.2800293c1.2299805 1.9296875 2.2099609 3.9296875 2.9099121 6 .8200684 2.4296874-.5898437 5.0297851-3.0600585 5.7299804z" fill="#4269c4"/><g fill="#255299"><ellipse cx="34" cy="51.799" rx="20.149" ry="3.17"/><circle cx="17.205" cy="58.653" r="1.939"/><circle cx="22.911" cy="60.033" r="1.939"/></g><circle cx="16.213" cy="59.025" fill="#fa990e" r="1.939"/><circle cx="21.919" cy="60.405" fill="#aec46e" r="1.939"/><g><path d="m33.9925652 16.1531296v21.6006813l-17.8405037-7.282013v-21.6006803z" fill="#e0860e"/><path d="m51.8474922 8.8711176v21.6006803l-17.854927 7.282013v-21.6006813z" fill="#fa990e"/><path d="m51.8512764 8.8711176-17.8603897 7.2824793-17.8421612-7.2824793 17.8603878-7.2824795z" fill="#fbad3e"/></g><g><g opacity=".36"><path d="m45.4235497 51.6731491c-7.6425247 1.5163536-15.25877 1.5275574-22.8474464 0l-14.2924539-28.2943382h51.4327011z" fill="#d1dafe"/></g></g></g></svg>